<svg width="1000" height="180" viewBox="0 0 1000 180" fill="none" xmlns="http://www.w3.org/2000/svg">
<g clip-path="url(#clip0_1112_2)">
<path d="M264.567 116.982C261.758 116.982 259.383 116.701 257.442 116.139C255.552 115.577 253.995 115.015 252.769 114.454C251.543 113.892 250.47 113.611 249.551 113.611C248.785 113.611 248.172 113.892 247.712 114.454C247.304 115.015 246.997 115.807 246.793 116.829H245.874C245.976 115.756 246.052 114.454 246.103 112.921C246.154 111.338 246.18 109.295 246.18 106.792C246.231 104.29 246.257 101.123 246.257 97.2922H247.176C247.534 103.064 249.142 107.635 252.003 111.006C254.863 114.326 258.617 115.986 263.265 115.986C266.738 115.986 269.547 114.99 271.692 112.998C273.837 110.955 274.91 108.248 274.91 104.877C274.91 102.885 274.476 101.123 273.607 99.5906C272.739 98.0073 271.36 96.5517 269.47 95.2237C267.632 93.8957 265.18 92.5933 262.116 91.3164C258.591 89.8353 255.706 88.2775 253.458 86.6431C251.211 84.9576 249.551 83.1189 248.478 81.1269C247.457 79.0839 246.946 76.8366 246.946 74.385C246.946 71.5758 247.585 69.1498 248.861 67.1068C250.138 65.0127 251.926 63.4038 254.224 62.2801C256.574 61.1565 259.332 60.5947 262.499 60.5947C265.001 60.5947 267.07 60.85 268.704 61.3608C270.339 61.8715 271.718 62.4078 272.841 62.9697C273.965 63.4804 274.961 63.7358 275.829 63.7358C276.595 63.7358 277.183 63.4804 277.591 62.9697C278.051 62.4589 278.409 61.7183 278.664 60.7479H279.583C279.481 61.7694 279.379 62.9697 279.277 64.3487C279.226 65.6767 279.175 67.3621 279.124 69.4051C279.124 71.4482 279.124 74.0785 279.124 77.2963H278.204C277.847 72.5974 276.34 68.8178 273.684 65.9576C271.028 63.0463 267.632 61.5906 263.495 61.5906C260.226 61.5906 257.646 62.4844 255.757 64.2721C253.918 66.0597 252.999 68.4092 252.999 71.3205C252.999 73.1592 253.458 74.8447 254.378 76.3769C255.297 77.8581 256.778 79.2882 258.821 80.6672C260.864 82.0463 263.597 83.5019 267.019 85.0342C272.484 87.4347 276.34 89.9119 278.587 92.4656C280.835 95.0194 281.958 98.1605 281.958 101.889C281.958 106.588 280.4 110.291 277.285 112.998C274.169 115.654 269.93 116.982 264.567 116.982ZM315.454 115.909V114.99C317.548 114.888 318.978 114.454 319.744 113.687C320.51 112.921 320.893 111.517 320.893 109.474V88.7882C320.893 85.0086 320.229 82.174 318.901 80.2842C317.573 78.3433 315.581 77.3729 312.925 77.3729C310.985 77.3729 309.146 77.9092 307.409 78.9818C305.673 80.0543 304.192 81.5866 302.966 83.5785V82.5826C304.294 80.3353 306.107 78.5732 308.405 77.2963C310.704 76.0194 313.232 75.381 315.99 75.381C319.923 75.381 322.936 76.6834 325.03 79.2882C327.175 81.842 328.248 85.5194 328.248 90.3205V109.474C328.248 111.517 328.733 112.921 329.704 113.687C330.674 114.454 332.462 114.888 335.067 114.99V115.909C334.454 115.858 333.56 115.833 332.385 115.833C331.21 115.781 329.933 115.73 328.554 115.679C327.227 115.628 325.924 115.603 324.647 115.603C322.86 115.603 321.097 115.654 319.361 115.756C317.624 115.807 316.322 115.858 315.454 115.909ZM288.946 115.909V114.99C291.55 114.888 293.313 114.454 294.232 113.687C295.202 112.921 295.688 111.517 295.688 109.474V64.4253C295.688 62.0248 295.202 60.3393 294.232 59.3689C293.261 58.3984 291.499 57.8366 288.946 57.6834V56.764C289.916 56.8151 290.835 56.8662 291.704 56.9172C292.623 56.9683 293.517 56.9939 294.385 56.9939C295.968 56.9939 297.475 56.9172 298.905 56.764C300.386 56.5597 301.791 56.2788 303.119 55.9213V109.474C303.119 111.517 303.502 112.921 304.268 113.687C305.034 114.454 306.464 114.888 308.558 114.99V115.909C307.537 115.858 306.183 115.807 304.498 115.756C302.813 115.654 301.102 115.603 299.365 115.603C297.577 115.603 295.713 115.654 293.772 115.756C291.882 115.807 290.274 115.858 288.946 115.909ZM338.93 115.909V114.99C341.433 114.939 343.195 114.556 344.216 113.841C345.238 113.075 345.749 111.619 345.749 109.474V84.0382C345.749 81.7909 345.263 80.1565 344.293 79.135C343.374 78.1135 341.586 77.5006 338.93 77.2963V76.4535C339.798 76.5046 340.692 76.5557 341.612 76.6068C342.531 76.6578 343.45 76.6834 344.37 76.6834C346.004 76.6834 347.562 76.6068 349.043 76.4535C350.524 76.2492 351.878 75.9683 353.104 75.6108V109.474C353.104 111.619 353.614 113.075 354.636 113.841C355.708 114.556 357.47 114.939 359.922 114.99V115.909C359.258 115.858 358.339 115.833 357.164 115.833C356.04 115.781 354.789 115.73 353.41 115.679C352.082 115.628 350.754 115.603 349.426 115.603C347.485 115.603 345.493 115.654 343.45 115.756C341.458 115.807 339.952 115.858 338.93 115.909ZM349.349 66.8003C348.124 66.8003 347.051 66.3662 346.132 65.4979C345.212 64.6296 344.753 63.5315 344.753 62.2035C344.753 60.9267 345.212 59.8541 346.132 58.9858C347.051 58.0664 348.124 57.6068 349.349 57.6068C350.626 57.6068 351.724 58.0409 352.644 58.9092C353.563 59.7775 354.023 60.8756 354.023 62.2035C354.023 63.4804 353.563 64.5785 352.644 65.4979C351.724 66.3662 350.626 66.8003 349.349 66.8003ZM414.439 115.909V114.99C416.482 114.888 417.861 114.454 418.576 113.687C419.342 112.921 419.725 111.517 419.725 109.474V88.7882C419.725 85.0597 419.087 82.225 417.81 80.2842C416.584 78.3433 414.72 77.3729 412.217 77.3729C410.021 77.3729 408.003 78.0624 406.165 79.4414C404.326 80.8205 402.87 82.7358 401.798 85.1874L401.721 84.4213C402.845 81.51 404.607 79.2882 407.007 77.756C409.459 76.1726 412.166 75.381 415.128 75.381C419.01 75.381 421.972 76.6834 424.015 79.2882C426.109 81.8931 427.156 85.5705 427.156 90.3205V109.474C427.156 111.517 427.642 112.921 428.612 113.687C429.583 114.454 431.37 114.888 433.975 114.99V115.909C433.311 115.858 432.392 115.833 431.217 115.833C430.093 115.781 428.842 115.73 427.463 115.679C426.135 115.628 424.833 115.603 423.556 115.603C421.768 115.603 420.006 115.654 418.269 115.756C416.584 115.807 415.307 115.858 414.439 115.909ZM364.257 115.909V114.99C366.811 114.888 368.573 114.454 369.544 113.687C370.565 112.921 371.076 111.517 371.076 109.474V84.0382C371.076 81.6377 370.565 79.9777 369.544 79.0584C368.522 78.0879 366.76 77.5006 364.257 77.2963V76.4535C365.177 76.5046 366.07 76.5557 366.939 76.6068C367.858 76.6578 368.777 76.6834 369.697 76.6834C371.28 76.6834 372.787 76.6068 374.217 76.4535C375.698 76.2492 377.103 75.9683 378.431 75.6108V109.474C378.431 111.517 378.814 112.921 379.58 113.687C380.397 114.454 381.802 114.888 383.794 114.99V115.909C382.568 115.858 381.163 115.807 379.58 115.756C378.048 115.654 376.413 115.603 374.677 115.603C372.94 115.603 371.152 115.654 369.314 115.756C367.526 115.807 365.841 115.858 364.257 115.909ZM390.076 115.909V114.99C392.119 114.888 393.498 114.454 394.213 113.687C394.979 112.921 395.362 111.517 395.362 109.474V88.7882C395.362 85.0597 394.724 82.225 393.447 80.2842C392.221 78.3433 390.357 77.3729 387.854 77.3729C385.964 77.3729 384.177 77.9092 382.491 78.9818C380.857 80.0543 379.452 81.5866 378.277 83.5785V82.5826C379.554 80.3353 381.291 78.5732 383.487 77.2963C385.734 76.0194 388.186 75.381 390.842 75.381C394.673 75.381 397.609 76.6578 399.652 79.2116C401.747 81.7654 402.794 85.4428 402.794 90.2439V109.474C402.794 111.517 403.151 112.921 403.866 113.687C404.632 114.454 406.062 114.888 408.156 114.99V115.909C407.288 115.858 405.986 115.807 404.249 115.756C402.564 115.654 400.853 115.603 399.116 115.603C397.38 115.603 395.643 115.654 393.906 115.756C392.221 115.807 390.944 115.858 390.076 115.909ZM437.734 115.909V114.99C440.339 114.939 442.126 114.53 443.097 113.764C444.067 112.947 444.552 111.517 444.552 109.474V84.0382C444.552 81.6377 444.042 79.9777 443.02 79.0584C441.999 78.0879 440.237 77.5006 437.734 77.2963V76.4535C438.653 76.5046 439.547 76.5557 440.415 76.6068C441.335 76.6578 442.28 76.6834 443.25 76.6834C446.366 76.6834 449.251 76.3258 451.907 75.6108V108.861C451.907 111.006 452.597 112.564 453.976 113.534C455.406 114.454 457.755 114.939 461.024 114.99V115.909C460.207 115.858 459.083 115.833 457.653 115.833C456.274 115.781 454.767 115.73 453.133 115.679C451.55 115.628 449.992 115.603 448.46 115.603C446.212 115.603 444.093 115.654 442.101 115.756C440.16 115.807 438.704 115.858 437.734 115.909ZM466.387 87.3326C465.366 87.3326 464.523 87.0261 463.859 86.4132C463.195 85.8003 462.863 85.0086 462.863 84.0382C462.863 83.3232 462.991 82.7103 463.246 82.1995C463.552 81.6377 463.833 81.1014 464.089 80.5906C464.395 80.0799 464.548 79.5436 464.548 78.9818C464.548 77.8581 463.731 77.2963 462.097 77.2963C460.871 77.2963 459.594 77.5772 458.266 78.139C456.938 78.6498 455.712 79.3904 454.589 80.3608C453.465 81.2801 452.546 82.3527 451.831 83.5785L451.754 82.5826C453.031 80.3353 454.767 78.5732 456.964 77.2963C459.211 76.0194 461.509 75.381 463.859 75.381C466.055 75.381 467.792 75.9683 469.069 77.1431C470.396 78.3178 471.06 79.9267 471.06 81.9697C471.06 83.553 470.626 84.8554 469.758 85.8769C468.89 86.8474 467.766 87.3326 466.387 87.3326ZM494.399 116.982C490.926 116.982 487.811 116.241 485.052 114.76C482.294 113.279 480.098 111.006 478.464 107.941C476.829 104.877 476.012 100.97 476.012 96.2197C476.012 91.4186 476.829 87.4858 478.464 84.4213C480.098 81.3568 482.294 79.0839 485.052 77.6027C487.862 76.1215 491.003 75.381 494.476 75.381C498 75.381 501.141 76.1215 503.899 77.6027C506.657 79.0839 508.828 81.3568 510.411 84.4213C512.046 87.4858 512.863 91.4186 512.863 96.2197C512.863 100.97 512.046 104.877 510.411 107.941C508.828 111.006 506.657 113.279 503.899 114.76C501.141 116.241 497.975 116.982 494.399 116.982ZM494.476 116.139C497.489 116.139 499.966 114.556 501.907 111.389C503.899 108.171 504.895 103.115 504.895 96.2197C504.895 89.3245 503.899 84.2681 501.907 81.0503C499.966 77.8326 497.489 76.2237 494.476 76.2237C491.411 76.2237 488.883 77.8326 486.891 81.0503C484.95 84.2681 483.98 89.3245 483.98 96.2197C483.98 103.115 484.95 108.171 486.891 111.389C488.883 114.556 491.411 116.139 494.476 116.139ZM546.068 115.909V114.99C548.162 114.888 549.592 114.454 550.358 113.687C551.125 112.921 551.508 111.517 551.508 109.474V88.7882C551.508 85.0086 550.844 82.174 549.516 80.2842C548.188 78.3433 546.196 77.3729 543.54 77.3729C541.599 77.3729 539.76 77.9092 538.024 78.9818C536.287 80.0543 534.806 81.5866 533.58 83.5785V82.5826C534.908 80.3353 536.721 78.5732 539.02 77.2963C541.318 76.0194 543.846 75.381 546.604 75.381C550.588 75.381 553.627 76.6834 555.721 79.2882C557.866 81.842 558.939 85.5194 558.939 90.3205V109.474C558.939 111.517 559.424 112.921 560.395 113.687C561.365 114.454 563.127 114.888 565.681 114.99V115.909C565.068 115.858 564.174 115.833 563 115.833C561.876 115.781 560.625 115.73 559.245 115.679C557.918 115.628 556.615 115.603 555.338 115.603C553.5 115.603 551.712 115.654 549.975 115.756C548.239 115.807 546.936 115.858 546.068 115.909ZM519.56 115.909V114.99C522.114 114.888 523.876 114.454 524.846 113.687C525.868 112.921 526.379 111.517 526.379 109.474V84.0382C526.379 81.6377 525.868 79.9777 524.846 79.0584C523.825 78.0879 522.063 77.5006 519.56 77.2963V76.4535C520.479 76.5046 521.373 76.5557 522.241 76.6068C523.161 76.6578 524.08 76.6834 525 76.6834C526.583 76.6834 528.09 76.6068 529.52 76.4535C531.001 76.2492 532.405 75.9683 533.733 75.6108V109.474C533.733 111.517 534.116 112.921 534.883 113.687C535.7 114.454 537.13 114.888 539.173 114.99V115.909C537.947 115.858 536.543 115.807 534.959 115.756C533.376 115.654 531.716 115.603 529.979 115.603C528.243 115.603 526.455 115.654 524.616 115.756C522.829 115.807 521.143 115.858 519.56 115.909Z" fill="white"/>
<path d="M128.5 167.5C171.302 167.5 206 132.802 206 90C206 47.1979 171.302 12.5 128.5 12.5C85.6979 12.5 51 47.1979 51 90C51 132.802 85.6979 167.5 128.5 167.5Z" fill="white"/>
<path d="M129.468 117.982C126.658 117.982 124.283 117.701 122.343 117.139C120.453 116.577 118.895 116.015 117.669 115.454C116.443 114.892 115.371 114.611 114.451 114.611C113.685 114.611 113.072 114.892 112.613 115.454C112.204 116.015 111.898 116.807 111.693 117.829H110.774C110.876 116.756 110.953 115.454 111.004 113.921C111.055 112.338 111.08 110.295 111.08 107.792C111.131 105.29 111.157 102.123 111.157 98.2922H112.076C112.434 104.064 114.043 108.635 116.903 112.006C119.763 115.326 123.517 116.986 128.165 116.986C131.638 116.986 134.447 115.99 136.593 113.998C138.738 111.955 139.81 109.248 139.81 105.877C139.81 103.885 139.376 102.123 138.508 100.591C137.64 99.0073 136.261 97.5517 134.371 96.2237C132.532 94.8957 130.08 93.5933 127.016 92.3164C123.492 90.8353 120.606 89.2775 118.359 87.6431C116.111 85.9576 114.451 84.1189 113.379 82.1269C112.357 80.0839 111.847 77.8366 111.847 75.385C111.847 72.5758 112.485 70.1498 113.762 68.1068C115.039 66.0127 116.826 64.4038 119.125 63.2801C121.474 62.1565 124.232 61.5947 127.399 61.5947C129.902 61.5947 131.97 61.85 133.605 62.3608C135.239 62.8715 136.618 63.4078 137.742 63.9697C138.865 64.4804 139.861 64.7358 140.73 64.7358C141.496 64.7358 142.083 64.4804 142.492 63.9697C142.951 63.4589 143.309 62.7183 143.564 61.7479H144.484C144.382 62.7694 144.279 63.9697 144.177 65.3487C144.126 66.6767 144.075 68.3621 144.024 70.4051C144.024 72.4482 144.024 75.0785 144.024 78.2963H143.105C142.747 73.5974 141.24 69.8178 138.584 66.9576C135.929 64.0463 132.532 62.5906 128.395 62.5906C125.126 62.5906 122.547 63.4844 120.657 65.2721C118.818 67.0597 117.899 69.4092 117.899 72.3205C117.899 74.1592 118.359 75.8447 119.278 77.3769C120.197 78.8581 121.679 80.2882 123.722 81.6672C125.765 83.0463 128.497 84.5019 131.919 86.0342C137.384 88.4347 141.24 90.9119 143.488 93.4656C145.735 96.0194 146.859 99.1605 146.859 102.889C146.859 107.588 145.301 111.291 142.185 113.998C139.07 116.654 134.83 117.982 129.468 117.982Z" fill="#1E2225"/>
</g>
<defs>
<clipPath id="clip0_1112_2">
<rect width="1000" height="180" fill="white"/>
</clipPath>
</defs>
</svg>
